<svg xmlns="http://www.w3.org/2000/svg" width="32" height="32" viewBox="0 0 32 32" fill="none">
  <defs>
    <linearGradient id="tile" x1="0" y1="0" x2="32" y2="32" gradientUnits="userSpaceOnUse">
      <stop stop-color="#4F46E5"/>
      <stop offset="1" stop-color="#2563EB"/>
    </linearGradient>
    <linearGradient id="badge" x1="17" y1="17" x2="28" y2="28" gradientUnits="userSpaceOnUse">
      <stop stop-color="#22D3EE"/>
      <stop offset="1" stop-color="#38BDF8"/>
    </linearGradient>
  </defs>
  <rect width="32" height="32" rx="8.5" fill="url(#tile)"/>
  <rect x="12.2" y="6.4" width="12.4" height="15.4" rx="2.4" fill="#fff" opacity="0.4"/>
  <rect x="7.4" y="7.9" width="13" height="16.4" rx="2.6" fill="#fff"/>
  <rect x="9.9" y="11.2" width="8" height="1.7" rx="0.85" fill="#2563EB"/>
  <rect x="9.9" y="14.3" width="8" height="1.7" rx="0.85" fill="#9AB0F6"/>
  <rect x="9.9" y="17.4" width="5.2" height="1.7" rx="0.85" fill="#9AB0F6"/>
  <circle cx="22.6" cy="22.6" r="6.4" fill="#fff"/>
  <circle cx="22.6" cy="22.6" r="5.5" fill="url(#badge)"/>
  <g stroke="#fff" stroke-width="1.25" stroke-linecap="round" stroke-linejoin="round" fill="none">
    <path d="M19.7 21.2 H24.9 M23.5 19.9 L25.4 21.2 L23.5 22.5"/>
    <path d="M25.5 24 H20.3 M21.7 22.7 L19.8 24 L21.7 25.3"/>
  </g>
</svg>
